<svg xmlns="http://www.w3.org/2000/svg" viewBox="0 0 200 200">
  <rect width="200" height="200" rx="44" ry="44" fill="#ffffff"/>
  <path fill="#9d0c25" d="m 91.884966,174.27254 c -14.97387,-7.20354 -28.56093,-19.09286 -38.066142,-33.30968 -3.505808,-5.24358 -8.444682,-15.07141 -10.138102,-20.17372 -1.121451,-3.379 -1.181408,-4.07392 -1.181408,-13.69523 V 96.958299 l 8.623239,-11.11352 c 4.742791,-6.11243 11.159443,-14.391014 14.259233,-18.396862 3.0998,-4.005831 5.75911,-7.29242 5.90959,-7.303514 0.15055,-0.01049 1.89674,1.492709 3.88064,3.341762 l 3.60705,3.361934 -2.69231,3.47787 c -8.09705,10.45957 -9.01039,11.77118 -9.00657,12.93403 0.006,1.60203 0.82965,11.35803 1.16688,13.80888 0.21745,1.5803 0.90431,2.64076 3.75434,5.796441 5.36879,5.94456 5.0559,5.04383 3.93551,11.32899 l -0.96437,5.40989 1.46151,1.67671 c 4.28711,4.91839 6.39147,7.08848 6.7312,6.9415 0.86247,-0.37316 10.24308,-5.6908 11.84978,-6.71735 1.57564,-1.00669 1.73893,-1.30175 1.73893,-3.14204 0,-1.94879 -0.14827,-2.16469 -3.66363,-5.33373 -3.40951,-3.07363 -3.67511,-3.44692 -3.82898,-5.38185 -0.0952,-1.19739 0.0327,-2.07797 0.30169,-2.0764 0.25689,0.001 2.73226,0.6168 5.50085,1.36735 l 5.033814,1.36461 5.27526,-1.45321 c 2.90141,-0.79928 5.40418,-1.32432 5.56176,-1.16674 0.15757,0.15757 0.14565,1.11968 -0.0264,2.13804 -0.2635,1.55973 -0.89205,2.3746 -3.98762,5.16974 -3.53256,3.18972 -3.6748,3.39721 -3.6748,5.36143 0,2.33914 -0.32138,2.07617 8.67908,7.10134 l 5.20123,2.90398 2.73612,-2.93184 c 1.50489,-1.6125 3.29097,-3.59435 3.9691,-4.4041 l 1.23295,-1.47227 -0.93937,-5.21677 c -0.51664,-2.86922 -0.93936,-5.39006 -0.93936,-5.60185 0,-0.2118 1.85905,-2.45971 4.13122,-4.99536 2.36953,-2.64431 4.2403,-5.164481 4.38702,-5.909911 0.14072,-0.71478 0.49642,-4.48228 0.79051,-8.37217 0.46087,-6.09562 0.43974,-7.21655 -0.153,-8.11501 -0.37825,-0.57336 -3.03507,-4.06795 -5.90405,-7.765754 l -5.21633,-6.72329 3.63825,-3.365983 c 2.00103,-1.851278 3.77595,-3.312247 3.94429,-3.246576 0.16825,0.06572 4.67135,5.753529 10.00673,12.639708 5.3354,6.886165 11.72337,15.106035 14.19549,18.266375 l 4.49475,5.74607 v 10.340401 c 0,9.9803 -0.0422,10.45841 -1.21349,13.72995 -2.88294,8.05256 -7.90504,17.35992 -13.28152,24.61436 -3.44261,4.64505 -11.38889,12.88107 -16.11016,16.69756 -6.00727,4.85604 -14.80068,10.32782 -20.98308,13.05688 l -2.66638,1.17699 0.009,-16.3401 0.008,-16.3401 4.61125,-5.10087 c 2.53621,-2.80547 4.55898,-5.28098 4.49508,-5.50112 -0.12484,-0.42995 -11.70313,-6.78732 -12.36133,-6.78732 -0.623154,0 -12.530474,6.55547 -12.512504,6.88865 0.008,0.1644 2.09169,2.59432 4.6285,5.39979 l 4.61237,5.10087 0.0608,4.63715 c 0.18146,13.83435 0.1595,28.05244 -0.0435,28.0473 -0.12754,-0.003 -2.31858,-1.00976 -4.86902,-2.2367 z m -4.86901,-20.45769 v -5.54436 l -10.78138,-11.8912 c -5.92975,-6.54017 -11.05029,-12.26159 -11.37899,-12.71426 -0.49484,-0.68149 -0.42034,-1.79229 0.43323,-6.45901 l 1.03084,-5.63594 -2.0903,-2.18937 c -5.5962,-5.86148 -5.958817,-6.45133 -6.018581,-9.790081 -0.03014,-1.68562 -0.195348,-3.69079 -0.367035,-4.4559 -0.29721,-1.32457 -0.33752,-1.3454 -0.84217,-0.43506 -0.291514,0.52585 -1.378386,1.98273 -2.415273,3.23749 l -1.885245,2.281431 v 7.76513 c 0,8.90271 0.162645,9.53816 4.812599,18.80553 4.559995,9.08798 9.015265,15.24348 15.903125,21.97206 3.69483,3.60936 12.37614,10.59793 13.16492,10.59793 0.24565,0 0.43426,-2.40806 0.43426,-5.54439 z m 30.851454,2.45377 c 10.64894,-8.03236 18.65899,-17.58918 24.53573,-29.2737 4.7002,-9.34529 4.89574,-10.1027 4.89574,-18.96339 v -7.71735 l -2.43449,-3.204581 -2.43451,-3.20454 -0.32106,1.77411 c -0.17659,0.97578 -0.33308,2.97432 -0.34779,4.441241 l -0.0266,2.66712 -4.00681,4.43642 -4.00684,4.43639 0.80557,4.72119 c 0.44305,2.59667 0.90811,5.17371 1.03345,5.72674 0.18038,0.79588 -1.30493,2.68109 -7.12429,9.04245 -4.04369,4.4203 -9.1745,10.07113 -11.40179,12.55739 l -4.0496,4.52045 v 5.56533 c 0,3.06095 0.17685,5.56535 0.393,5.56535 0.21616,0 2.23684,-1.39077 4.49042,-3.09062 z M 88.162566,99.133819 c -0.47625,-2.13622 -1.12731,-4.14541 -1.44676,-4.46488 -0.31945,-0.31945 -2.63966,-1.24187 -5.15601,-2.04985 l -4.57519,-1.46902 -2.37558,-4.1519 c -1.30657,-2.28355 -2.18349,-4.1519 -1.94869,-4.1519 0.23479,0 3.53588,0.73036 7.33574,1.623 3.79988,0.89265 7.03757,1.623 7.19488,1.623 0.15739,0 1.12134,0.75465 2.14223,1.67696 2.21665,2.00262 2.24443,2.36939 0.75079,9.91592 l -1.05547,5.332721 z m 21.659344,-1.77479 c -1.37984,-7.44227 -1.362,-7.64834 0.82437,-9.5198 1.6049,-1.37372 2.7748,-1.79237 9.30419,-3.32953 4.10766,-0.96702 7.52887,-1.68472 7.6027,-1.5949 0.0738,0.0899 -0.89282,1.95016 -2.1481,4.13409 l -2.28237,3.97073 -5.06629,1.76474 c -5.59964,1.95052 -5.34613,1.66767 -6.26285,6.9875 -0.60137,3.489801 -0.95824,3.053071 -1.97165,-2.41283 z M 42.609641,69.912455 42.73127,52.131549 55.715281,44.542498 c 7.141225,-4.173976 13.162765,-7.592415 13.381225,-7.596535 0.21846,-0.0035 1.99219,1.499984 3.94158,3.342428 1.94941,1.842463 4.50881,4.260154 5.68758,5.372685 l 2.14319,2.022754 9.37991,-12.096536 c 5.15896,-6.653097 9.54295,-12.096534 9.74221,-12.096534 0.199244,0 4.580804,5.429766 9.736794,12.066127 l 9.37455,12.066145 4.61363,-4.298904 c 2.5375,-2.364413 5.22615,-4.792215 5.9748,-5.395153 l 1.36117,-1.096213 6.61645,3.82305 c 3.63905,2.102692 9.59003,5.57937 13.22438,7.72593 l 6.60794,3.902864 V 69.9613 c 0,9.722189 -0.0961,17.580599 -0.21352,17.463159 -0.11748,-0.11742 -2.40831,-3.01579 -5.09081,-6.44079 l -4.87727,-6.227279 -0.12598,-8.354123 -0.12598,-8.354142 -5.56458,-3.323954 c -3.06052,-1.828179 -6.42468,-3.793974 -7.4759,-4.368432 l -1.91134,-1.044459 -13.32606,12.478135 c -7.32932,6.862975 -14.55587,13.590856 -16.05895,14.950854 l -2.732894,2.47274 -2.00385,-1.77716 c -1.10214,-0.97743 -8.21106,-7.619963 -15.79764,-14.761184 -7.58657,-7.141204 -14.03992,-13.030841 -14.34076,-13.088082 -0.30084,-0.05731 -3.78139,1.826759 -7.73455,4.186667 l -7.187597,4.290737 -0.231855,8.56549 -0.231853,8.565489 -4.353745,5.564583 c -2.394555,3.06052 -4.640297,5.87267 -4.990542,6.2492 -0.540614,0.58121 -0.618447,-2.00146 -0.515271,-17.096294 z m 60.127819,-7.092288 c 1.42737,-1.322704 4.00196,-3.740273 5.72131,-5.372368 l 3.12605,-2.967436 -5.63219,-7.147934 c -3.09774,-3.931362 -5.78001,-7.147933 -5.960634,-7.147933 -0.18061,0 -2.85334,3.221864 -5.93937,7.159693 l -5.61101,7.159711 5.66326,5.348708 c 3.11479,2.941778 5.74742,5.354054 5.8503,5.360591 0.102884,0.0069 1.354894,-1.070309 2.782284,-2.393032 z"/>
</svg>
